# xmcd
#
# Track frame offsets: 
#        150
#        29537
#        55470
#        86502
#
# Disc length: 1543 seconds
#
# Revision: 1
# Processed by: cddbd v1.5.2PL0 Copyright (c) Steve Scherf et al.
# Submitted via: ExactAudioCopy v1.0b3
#
DISCID=2e060504
DTITLE=信近エリ - Voice
DYEAR=2005
DGENRE=JPop
TTITLE0=Voice
TTITLE1=Voice (Live @ Crescente Studio)
TTITLE2=I hear the music in my soul (Solid Groove Remix)
TTITLE3=Voice (Karaoke)
EXTD=
EXTT0=
EXTT1=
EXTT2=
EXTT3=
PLAYORDER=
